<svg width="28" height="28" viewBox="0 0 28 28" fill="none" xmlns="http://www.w3.org/2000/svg">
<path d="M0 28L1.97756 20.8098C0.757263 18.7052 0.116051 16.3193 0.117223 13.8728C0.12074 6.22417 6.37461 0 14.0586 0C17.7875 0.00116667 21.2878 1.44667 23.9206 4.06933C26.5523 6.692 28.0012 10.178 28 13.8857C27.9965 21.5355 21.7426 27.7597 14.0586 27.7597C11.7259 27.7585 9.42711 27.1763 7.39094 26.0703L0 28ZM7.73323 23.5585C9.6979 24.7193 11.5735 25.4147 14.0539 25.4158C20.4403 25.4158 25.6426 20.2428 25.6462 13.8833C25.6485 7.511 20.4707 2.345 14.0633 2.34267C7.67228 2.34267 2.47342 7.51567 2.47107 13.874C2.4699 16.4698 3.2342 18.4135 4.51779 20.447L3.34673 24.703L7.73323 23.5585ZM21.0815 17.1838C20.9947 17.0392 20.7626 16.9528 20.4133 16.779C20.0651 16.6052 18.3525 15.7663 18.0325 15.6508C17.7136 15.5353 17.4815 15.477 17.2483 15.8247C17.0162 16.1712 16.348 16.9528 16.1452 17.1838C15.9424 17.4148 15.7384 17.444 15.3903 17.2702C15.0421 17.0963 13.9191 16.7312 12.5886 15.5493C11.5535 14.63 10.8537 13.4948 10.6509 13.1472C10.4481 12.8007 10.6298 12.6128 10.8033 12.4402C10.9604 12.285 11.1515 12.0353 11.3261 11.8323C11.5031 11.6317 11.5606 11.487 11.6778 11.2548C11.7939 11.0238 11.7364 10.8208 11.6485 10.647C11.5606 10.4743 10.8643 8.7675 10.5747 8.07333C10.291 7.39783 10.0039 7.48883 9.7905 7.47833L9.12233 7.46667C8.89023 7.46667 8.51277 7.553 8.19392 7.90067C7.87507 8.24833 6.9748 9.086 6.9748 10.7928C6.9748 12.4997 8.22323 14.1482 8.39672 14.3792C8.57138 14.6102 10.8525 18.1125 14.347 19.614C15.1781 19.971 15.8275 20.1845 16.3327 20.3443C17.1674 20.608 17.927 20.5707 18.5272 20.482C19.1965 20.3828 20.588 19.6432 20.8787 18.8335C21.1694 18.0227 21.1694 17.3285 21.0815 17.1838Z" fill="white"/>
</svg>
