<?xml version="1.0" encoding="UTF-8"?>
<svg id="_Слой_2" data-name="Слой 2" xmlns="http://www.w3.org/2000/svg" viewBox="0 0 464 432">
  <defs>
    <style>
      .cls-1 {
        fill: #ff7300;
        stroke-width: 0px;
      }

      .cls-2 {
        fill: #e8a215;
      }

      .cls-2, .cls-3, .cls-4, .cls-5 {
        stroke: #000;
        stroke-miterlimit: 10;
        stroke-width: 3px;
      }

      .cls-3 {
        fill: #492300;
      }

      .cls-4 {
        fill: #ffdf8f;
      }

      .cls-5 {
        fill: #f2c255;
      }
    </style>
  </defs>
  <g id="_Слой_1-2" data-name="Слой 1">
    <rect class="cls-1" width="464" height="432" rx="60" ry="60"/>
    <g>
      <path class="cls-2" d="M355.94,161.51c-1.83,5.82-4.36,12.53-7.94,19.72-3.78,7.58-7.84,13.93-11.58,19.06-.08,29.51-.17,59.01-.25,88.51-.49,3.91-1.38,8.03-2.81,12.26-8.68,25.57-31.88,38.4-41.19,42.89h-59.4v.03h-60.43c-9.32-4.49-32.51-17.32-41.19-42.89-1.44-4.23-2.32-8.35-2.81-12.26-.08-29.51-.17-59.01-.25-88.51-3.74-5.14-7.8-11.49-11.58-19.06-3.58-7.19-6.12-13.9-7.94-19.73.02-3.82.57-13.27,6.86-22.75,6.84-10.32,16.29-14.45,19.67-15.74,11.97-4.57,22.44-3.01,27.56-2.06,11.71,2.15,20.2,7.66,29.43,13.64,8.94,5.79,9.78,7.93,16.42,11.06,8.71,4.1,17.09,5.04,23.23,5.1v-.02c6.21.04,15.05-.77,24.26-5.11,6.64-3.12,7.48-5.26,16.42-11.06,9.23-5.98,17.72-11.48,29.42-13.64,5.13-.94,15.59-2.51,27.56,2.07,3.38,1.29,12.84,5.41,19.68,15.73,6.29,9.49,6.84,18.94,6.86,22.76Z"/>
      <path class="cls-5" d="M172.34,343.98h-62.3c-2.59-.5-8.66-2.03-14.3-7.15-5.67-5.15-7.77-11.08-8.51-13.62l-.51-112.17c9.5-5.02,13.47-11.11,15.23-14.63.79-1.57,2.01-4.39,4.29-18.42,1.11-6.83,1.86-12.51,2.33-16.46,2.42,8.24,6.22,18.03,12.36,28.23,2.34,3.89,4.76,7.4,7.15,10.55.09,29.5.17,59.01.26,88.51,2.31,17.35,9.3,26.85,13.36,31.32,4.22,4.65,9.93,8.99,16,13.62,5.88,4.47,10.99,7.89,14.64,10.21Z"/>
      <path class="cls-4" d="M390.04,147.19c-1.55,18.82-7.96,32.98-12.25,40.85v22.98c-9.98-4.16-14.02-9.67-15.83-13.11-.74-1.39-1.2-2.62-4.73-26.02-.26-1.76-.77-5.14-1.22-9.66-.32-3.1-.54-6.08-.69-8.92-.89-3.94-3.61-13.52-12.26-21.7-11.77-11.13-26.01-11.61-29.41-11.63-.41,0-1.2-.03-2.33-.01,0,0-6.89.11-13.7,1.94-10.06,2.7-24.49,16.68-38.96,23.34-5.58,2.57-14.05,5.37-25.89,5.5v.04c-12.39.02-21.18-2.87-26.92-5.51-14.47-6.66-28.9-20.65-38.96-23.34-6.81-1.83-13.7-1.95-13.7-1.95-1.13-.01-1.93.01-2.33.01-3.4.03-17.64.51-29.41,11.64-8.65,8.17-11.37,17.76-12.26,21.7-.15,2.84-.37,5.82-.69,8.92-.45,4.51-.96,7.9-1.22,9.66-3.53,23.39-3.99,24.62-4.73,26.02-1.82,3.44-5.86,8.95-15.83,13.1v-22.98c-4.29-7.86-10.7-22.03-12.25-40.85-1.37-16.61,1.59-30.08,4.08-38.3,3.06-6.32,9.67-17.82,22.47-27.57,16.11-12.27,32.73-14.7,39.83-15.32,8.34-1.02,25.47-1.98,44.94,5.62,17.37,6.78,28.56,17.23,34.17,23.28,1,1.17,3.17,3.37,6.68,4.63,2.15.78,4.08.95,5.44.94v-.03c1.37.04,3.45-.09,5.79-.93,3.5-1.27,5.68-3.47,6.68-4.64,5.61-6.04,16.8-16.5,34.17-23.28,19.47-7.6,36.6-6.64,44.94-5.61,7.1.62,23.72,3.04,39.83,15.31,12.8,9.76,19.41,21.25,22.47,27.58,2.48,8.21,5.45,21.69,4.08,38.3Z"/>
      <path class="cls-3" d="M170.21,224.23c-1.08,3.76-2.06,7.2-4.51,7.82-2.65.67-5.53-2.33-6.18-3.02-1.31-1.36-2.29-3.05-3.32-6.61-.9-3.11-2.33-8.25-1.65-15.22.25-2.59.88-6.27,2.55-10.47,1.02-2.01,2.93-5.19,6.3-8.17,3.39-3,6.81-4.52,8.94-5.28,2-.62,4.97-1.28,8.6-1.19,3.01.07,5.51.63,7.32,1.19,2.23.73,5.25,1.98,8.43,4.17,3.56,2.46,5.98,5.16,7.49,7.15.91,1.49,1.88,3.31,2.72,5.45,1.19,3.01,1.8,5.75,2.13,7.96.75,5.54.1,9.85-.51,12.47-.67,2.87-1.52,4.76-2.64,6.38-1.36,1.98-2.78,4.06-4.59,4.09-3.47.07-6.39-7.4-7.66-10.64-1.31-3.36-1.4-4.96-3.23-8.77-1.13-2.34-2.27-4.17-3.06-5.36-.28-.5-1.2-1.96-3.06-2.72-1.28-.53-2.43-.49-3.02-.43-1.24.1-3.33.46-5.15,1.96-1.62,1.33-2.37,3.01-3.15,5.53-1.93,6.22-1.16,8.25-2.72,13.7Z"/>
      <path class="cls-4" d="M144.94,263.38c-.29,1.39-.62,3.99.35,7.31.59,1.43,2.25,4.85,6.03,7.24,6.06,3.83,12.56,1.85,13.53,1.53,1.32-.49,5.56-2.25,8.43-6.89,3.03-4.9,2.52-9.76,2.33-11.11-.36-1.37-1.35-4.38-4.12-7.02-3.62-3.46-7.85-3.98-9.16-4.09-1.57,0-3.99.21-6.67,1.28-1.01.4-9.05,3.74-10.72,11.74Z"/>
      <path class="cls-5" d="M292.17,343.95h62.3c2.59-.5,8.66-2.03,14.3-7.15,5.67-5.15,7.77-11.08,8.51-13.62l.51-112.17c-9.5-5.02-13.47-11.11-15.23-14.63-.79-1.57-2.01-4.39-4.29-18.42-1.11-6.83-1.86-12.51-2.33-16.46-2.42,8.24-6.22,18.03-12.36,28.23-2.34,3.89-4.76,7.4-7.15,10.55-.09,29.5-.17,59.01-.26,88.51-2.31,17.35-9.3,26.85-13.36,31.32-4.22,4.65-9.93,8.99-16,13.62-5.88,4.47-10.99,7.89-14.64,10.21Z"/>
      <path class="cls-3" d="M294.3,224.21c1.08,3.76,2.06,7.2,4.51,7.82,2.65.67,5.53-2.33,6.18-3.02,1.31-1.36,2.29-3.05,3.32-6.61.9-3.11,2.33-8.25,1.65-15.22-.25-2.59-.88-6.27-2.55-10.47-1.02-2.01-2.93-5.19-6.3-8.17-3.39-3-6.81-4.52-8.94-5.28-2-.62-4.97-1.28-8.6-1.19-3.01.07-5.51.63-7.32,1.19-2.23.73-5.25,1.98-8.43,4.17-3.56,2.46-5.98,5.16-7.49,7.15-.91,1.49-1.88,3.31-2.72,5.45-1.19,3.01-1.8,5.75-2.13,7.96-.75,5.54-.1,9.85.51,12.47.67,2.87,1.52,4.76,2.64,6.38,1.36,1.98,2.78,4.06,4.59,4.09,3.47.07,6.39-7.4,7.66-10.64,1.31-3.36,1.4-4.96,3.23-8.77,1.13-2.34,2.27-4.17,3.06-5.36.28-.5,1.2-1.96,3.06-2.72,1.28-.53,2.43-.49,3.02-.43,1.24.1,3.33.46,5.15,1.96,1.62,1.33,2.37,3.01,3.15,5.53,1.93,6.22,1.16,8.25,2.72,13.7Z"/>
      <path class="cls-3" d="M263.78,244.41c-.96,1.33-2.3,2.89-4.12,4.39-3.58,2.95-7.26,4.2-9.53,4.77-3,.95-6.6,1.85-10.73,2.38-2.37.31-4.6.45-6.63.5v.04c-2.31-.01-4.88-.15-7.66-.51-4.13-.54-7.73-1.43-10.73-2.38-2.28-.57-5.95-1.82-9.53-4.77-1.82-1.5-3.16-3.07-4.12-4.4-.24-.68-1.29-3.94.38-6.66,2.01-3.3,7.29-4.65,12.25-2.22,2.01,1.44,5.03,3.28,9.02,4.6,3.65,1.2,6.91,1.59,9.36,1.68h0c2.53-.02,6.2-.32,10.39-1.71,3.99-1.32,7.01-3.16,9.02-4.59,4.96-2.44,10.24-1.08,12.25,2.21,1.67,2.72.62,5.98.38,6.67Z"/>
      <path class="cls-4" d="M319.57,263.36c.29,1.39.62,3.99-.35,7.31-.59,1.43-2.25,4.85-6.03,7.24-6.06,3.83-12.56,1.85-13.53,1.53-1.32-.49-5.56-2.25-8.43-6.89-3.03-4.9-2.52-9.76-2.33-11.11.36-1.37,1.35-4.38,4.12-7.02,3.62-3.46,7.85-3.98,9.16-4.09,1.57,0,3.99.21,6.67,1.28,1.01.4,9.05,3.74,10.72,11.74Z"/>
    </g>
  </g>
</svg>